<?xml version="1.0" encoding="utf-8"?>
<!-- Generator: Adobe Illustrator 23.1.0, SVG Export Plug-In . SVG Version: 6.00 Build 0)  -->
<svg version="1.1" id="Layer_1" xmlns="http://www.w3.org/2000/svg" xmlns:xlink="http://www.w3.org/1999/xlink" x="0px" y="0px"
	 viewBox="0 0 375.1 298" style="enable-background:new 0 0 375.1 298;" xml:space="preserve">
<style type="text/css">
	.st0{fill:#F8AE41;}
	.st1{fill:#E94468;}
	.st2{fill:#7FBAE6;}
	.st3{fill:#E40D1A;}
	.st4{fill:#F39809;}
	.st5{fill:#EA630A;}
	.st6{fill:#020203;}
	.st7{fill:#F7AA51;}
</style>
<path class="st0" d="M282.9,293.1l-250-101.9c-7.6-3.1-11.3-11.9-8.2-19.6L88.9,14.2c3.1-7.6,11.9-11.3,19.6-8.2l250,101.9
	c7.6,3.1,11.3,11.9,8.2,19.6l-64.2,157.4C299.4,292.5,290.6,296.2,282.9,293.1z"/>
<path class="st1" d="M286.4,293.3L20.1,249c-8.1-1.4-13.7-9.1-12.3-17.3L35.7,64c1.4-8.1,9.1-13.7,17.3-12.3L319.3,96
	c8.1,1.4,13.7,9.1,12.3,17.3L303.7,281C302.3,289.1,294.6,294.7,286.4,293.3z"/>
<path class="st2" d="M289.7,285.5h-270c-8.3,0-15-6.8-15-15v-170c0-8.3,6.7-15,15-15h270c8.3,0,15,6.8,15,15v170
	C304.7,278.8,297.9,285.5,289.7,285.5z"/>
<g>
	<path class="st3" d="M226,158.5c0-6.6,3.2-12.5,8.2-16.2c-3.3-2.4-7.4-3.8-11.8-3.8c-11,0-20,9-20,20c0,11,9,20,20,20
		c4.4,0,8.5-1.4,11.8-3.8C229.2,171,226,165.1,226,158.5z"/>
	<path class="st4" d="M246,138.5c-4.4,0-8.5,1.4-11.8,3.8c5,3.6,8.2,9.5,8.2,16.2s-3.2,12.5-8.2,16.2c3.3,2.4,7.4,3.8,11.8,3.8
		c11,0,20-9,20-20C266,147.5,257,138.5,246,138.5z"/>
	<ellipse class="st5" cx="234.2" cy="158.5" rx="8.2" ry="16.2"/>
</g>
<g>
	<path class="st6" d="M34,243.6c-0.4,0-0.7-0.2-0.7-0.7c0-0.5,0.3-0.7,0.7-0.7h4.8c0.8,0,1.4,0.6,1.4,1.4v2.7c0,0.6-0.1,1-0.5,1.4
		c0.4,0.4,0.5,0.8,0.5,1.4v2.7c0,0.8-0.6,1.4-1.4,1.4H34c-0.4,0-0.7-0.2-0.7-0.7c0-0.5,0.3-0.7,0.7-0.7h4.8v-2.3c0-0.8-0.3-1-0.7-1
		h-2.7c-0.4,0-0.7-0.2-0.7-0.7c0-0.5,0.3-0.7,0.7-0.7h2.7c0.4,0,0.7-0.2,0.7-1v-2.3H34z"/>
	<path class="st6" d="M48.9,251.7v-2.8c0-0.4,0.2-0.7,0.7-0.7c0.5,0,0.7,0.3,0.7,0.7v3.5c0,0.5-0.3,0.7-0.7,0.7h-5.5
		c-0.4,0-0.7-0.2-0.7-0.7c0-0.5,0.3-0.7,0.7-0.7h2.1v-8.1h-2.1c-0.4,0-0.7-0.2-0.7-0.7c0-0.5,0.3-0.7,0.7-0.7h3.5v9.5H48.9z"/>
	<path class="st6" d="M58.3,248.1v-4c0-0.4,0.2-0.7,0.7-0.7c0.5,0,0.7,0.3,0.7,0.7v4c0.4,0,0.7,0.2,0.7,0.7c0,0.5-0.3,0.7-0.7,0.7
		v2.9c0,0.4-0.2,0.7-0.7,0.7c-0.5,0-0.7-0.3-0.7-0.7v-2.9h-4.1v-6.6c0-0.4,0.2-0.7,0.7-0.7c0.5,0,0.7,0.3,0.7,0.7v5.2H58.3z"/>
	<path class="st6" d="M69,251.7v-2.8c0-0.4,0.2-0.7,0.7-0.7s0.7,0.3,0.7,0.7v3.5c0,0.5-0.3,0.7-0.7,0.7h-5.5c-0.4,0-0.7-0.2-0.7-0.7
		c0-0.5,0.3-0.7,0.7-0.7h2.1v-8.1h-2.1c-0.4,0-0.7-0.2-0.7-0.7c0-0.5,0.3-0.7,0.7-0.7h3.5v9.5H69z"/>
</g>
<g>
	<path class="st6" d="M104.1,247h2.6c0.4,0,0.8,0.1,1.1,0.4c0.4,0.4,0.4,0.7,0.4,1.2v3c0,0.4,0,0.7-0.3,1.1
		c-0.4,0.4-0.7,0.5-1.2,0.5h-3.1c-0.4,0-0.6-0.1-0.9-0.3l-0.5-0.2c-0.4-0.2-0.8-0.3-0.8-0.8c0-0.4,0.3-0.7,0.7-0.7
		c0.2,0,0.3,0,0.4,0.1l0.4,0.2c0.2,0.1,0.5,0.3,0.7,0.3h3.2v-3.3h-4.1v-6.1h4.8c0.4,0,0.7,0.2,0.7,0.7c0,0.5-0.3,0.7-0.7,0.7h-3.4
		V247z"/>
	<path class="st6" d="M116.9,247.2h-4.8c-0.4,0-0.7-0.3-0.7-0.7v-3.6c0-0.4,0.3-0.7,0.7-0.7h5.5c0.4,0,0.7,0.3,0.7,0.7v9.5
		c0,0.4-0.3,0.7-0.7,0.7h-0.7c-0.4,0-0.7-0.3-0.7-0.7c0-0.4,0.3-0.7,0.7-0.7V247.2z M116.9,245.8v-2.2h-4.1v2.2H116.9z"/>
	<path class="st6" d="M122.8,251.7h4.8c0.4,0,0.7,0.2,0.7,0.7c0,0.5-0.3,0.7-0.7,0.7h-6.2v-4.6c0-1.1,0.5-1.6,1.6-1.6h3.9v-3.3h-4.8
		c-0.4,0-0.7-0.2-0.7-0.7c0-0.5,0.3-0.7,0.7-0.7h4.7c0.5,0,0.8,0.1,1.1,0.4c0.4,0.4,0.4,0.7,0.4,1.2v2.9c0,0.5,0,0.9-0.4,1.2
		c-0.4,0.3-0.7,0.4-1.1,0.4h-4V251.7z"/>
	<path class="st6" d="M132.9,248.1h4.7c0.7,0,0.8,0.3,0.8,0.9v3.1c0,0.7-0.3,0.9-0.9,0.9h-5.1c-0.7,0-0.9-0.2-0.9-0.9v-9.3
		c0-0.3,0.1-0.7,0.6-0.7h0.8c0.4,0,0.7,0.3,0.7,0.7c0,0.4-0.3,0.7-0.7,0.7V248.1z M132.9,249.5v2.2h4.1v-2.2H132.9z"/>
</g>
<g>
	<path class="st6" d="M174.1,247h2.6c0.4,0,0.8,0.1,1.1,0.4c0.4,0.4,0.4,0.7,0.4,1.2v3c0,0.4,0,0.7-0.3,1.1
		c-0.4,0.4-0.7,0.5-1.2,0.5h-3.1c-0.4,0-0.6-0.1-0.9-0.3l-0.5-0.2c-0.4-0.2-0.8-0.3-0.8-0.8c0-0.4,0.3-0.7,0.7-0.7
		c0.2,0,0.3,0,0.4,0.1l0.4,0.2c0.2,0.1,0.5,0.3,0.7,0.3h3.2v-3.3h-4.1v-6.1h4.8c0.4,0,0.7,0.2,0.7,0.7c0,0.5-0.3,0.7-0.7,0.7h-3.4
		V247z"/>
	<path class="st6" d="M182.1,243.6c-0.4,0-0.7-0.2-0.7-0.7c0-0.5,0.3-0.7,0.7-0.7h4.8c0.8,0,1.4,0.6,1.4,1.4v2.7
		c0,0.6-0.1,1-0.5,1.4c0.4,0.4,0.5,0.8,0.5,1.4v2.7c0,0.8-0.6,1.4-1.4,1.4h-4.8c-0.4,0-0.7-0.2-0.7-0.7c0-0.5,0.3-0.7,0.7-0.7h4.8
		v-2.3c0-0.8-0.3-1-0.7-1h-2.7c-0.4,0-0.7-0.2-0.7-0.7c0-0.5,0.3-0.7,0.7-0.7h2.7c0.4,0,0.7-0.2,0.7-1v-2.3H182.1z"/>
	<path class="st6" d="M194.2,247h2.6c0.4,0,0.8,0.1,1.1,0.4c0.4,0.4,0.4,0.7,0.4,1.2v3c0,0.4,0,0.7-0.3,1.1
		c-0.4,0.4-0.7,0.5-1.2,0.5h-3.1c-0.4,0-0.6-0.1-0.9-0.3l-0.5-0.2c-0.4-0.2-0.8-0.3-0.8-0.8c0-0.4,0.3-0.7,0.7-0.7
		c0.2,0,0.3,0,0.4,0.1l0.4,0.2c0.2,0.1,0.5,0.3,0.7,0.3h3.2v-3.3h-4.1v-6.1h4.8c0.4,0,0.7,0.2,0.7,0.7c0,0.5-0.3,0.7-0.7,0.7h-3.4
		V247z"/>
	<path class="st6" d="M206.3,242.2c0.5,0,0.7,0.3,0.7,0.7v4c0.4,0,0.8,0.2,1,0.4s0.4,0.6,0.4,1v3.3c0,0.9-0.5,1.4-1.4,1.4h-4.1
		c-0.9,0-1.4-0.5-1.4-1.4v-3.3c0-0.4,0.1-0.8,0.4-1s0.6-0.4,1-0.4v-4c0-0.4,0.2-0.7,0.7-0.7H206.3z M207,251.7v-3.3h-4.1v3.3H207z
		 M205.6,247v-3.3h-1.3v3.3H205.6z"/>
</g>
<g>
	<path class="st6" d="M244.8,247.2H240c-0.4,0-0.7-0.3-0.7-0.7v-3.6c0-0.4,0.3-0.7,0.7-0.7h5.5c0.4,0,0.7,0.3,0.7,0.7v9.5
		c0,0.4-0.3,0.7-0.7,0.7h-0.7c-0.4,0-0.7-0.3-0.7-0.7c0-0.4,0.3-0.7,0.7-0.7V247.2z M244.8,245.8v-2.2h-4.1v2.2H244.8z"/>
	<path class="st6" d="M250.8,243.6c0,0.3-0.3,0.7-0.7,0.7s-0.7-0.4-0.7-0.7v-0.7c0-0.3,0.3-0.7,0.7-0.7h6.2v4.1c0,0.5,0,0.5-0.4,0.9
		l-2,1.7c-0.4,0.3-0.4,0.3-0.4,0.8v2.7c0,0.4-0.2,0.7-0.7,0.7c-0.5,0-0.7-0.3-0.7-0.7V249c0-0.5,0-0.5,0.4-0.8l1.9-1.7
		c0.5-0.4,0.4-0.4,0.4-1v-1.9H250.8z"/>
	<path class="st6" d="M265,247.2h-4.8c-0.4,0-0.7-0.3-0.7-0.7v-3.6c0-0.4,0.3-0.7,0.7-0.7h5.5c0.4,0,0.7,0.3,0.7,0.7v9.5
		c0,0.4-0.3,0.7-0.7,0.7H265c-0.4,0-0.7-0.3-0.7-0.7c0-0.4,0.3-0.7,0.7-0.7V247.2z M265,245.8v-2.2h-4.1v2.2H265z"/>
	<path class="st6" d="M270.2,243.6c-0.4,0-0.7-0.2-0.7-0.7c0-0.5,0.3-0.7,0.7-0.7h4.8c0.8,0,1.4,0.6,1.4,1.4v2.7
		c0,0.6-0.1,1-0.5,1.4c0.4,0.4,0.5,0.8,0.5,1.4v2.7c0,0.8-0.6,1.4-1.4,1.4h-4.8c-0.4,0-0.7-0.2-0.7-0.7c0-0.5,0.3-0.7,0.7-0.7h4.8
		v-2.3c0-0.8-0.3-1-0.7-1h-2.7c-0.4,0-0.7-0.2-0.7-0.7c0-0.5,0.3-0.7,0.7-0.7h2.7c0.4,0,0.7-0.2,0.7-1v-2.3H270.2z"/>
</g>
<g>
	<rect x="32.2" y="160.4" class="st7" width="12.5" height="7"/>
	<rect x="32.2" y="151.4" class="st7" width="12.5" height="7"/>
	<path class="st7" d="M32.2,169.4v1c0,3,2.5,5.5,5.5,5.5h7v-6.5H32.2z"/>
	<path class="st7" d="M56.2,151.4v-2h17c0-3-2.5-5.5-5.5-5.5h-21v32h21c3,0,5.5-2.5,5.5-5.5v-1h-17v-2h17v-7h-17v-2h17v-7H56.2z"/>
	<path class="st7" d="M44.7,143.9h-7c-3,0-5.5,2.5-5.5,5.5h12.5V143.9z"/>
</g>
</svg>
