<?xml version="1.0" encoding="utf-8"?>
<!-- Generator: Adobe Illustrator 23.1.0, SVG Export Plug-In . SVG Version: 6.00 Build 0)  -->
<svg version="1.1" id="Layer_1" xmlns="http://www.w3.org/2000/svg" xmlns:xlink="http://www.w3.org/1999/xlink" x="0px" y="0px"
	 viewBox="0 0 264.2 230.8" style="enable-background:new 0 0 264.2 230.8;" xml:space="preserve">
<style type="text/css">
	.st0{fill:#FDC60B;stroke:#010202;stroke-width:6.6163;stroke-miterlimit:10;}
	.st1{fill:#F9EFCF;stroke:#010202;stroke-width:4.7732;stroke-miterlimit:10;}
	.st2{fill:#FDC60B;}
</style>
<circle class="st0" cx="132.1" cy="115.4" r="106.1"/>
<circle class="st1" cx="132.1" cy="115.4" r="90.2"/>
<g>
	<path class="st2" d="M95.7,67.3c0-5.8,0.2-6.5,5.9-8.3c30.2-8.9,81.4-4,81.4,34.2c0,35.3-37.5,47.8-65.2,47l0.9,30.8
		c0.2,3.3-0.9,4.4-4.5,4.4h-10.6c-3.6,0-4.4-1.1-4.5-4.4L95.7,67.3z M115.4,74.6l1.4,45.9c27.9,0,46.4-9,46.4-25.4
		C163.2,77.3,144.2,70.9,115.4,74.6z"/>
</g>
</svg>
