<?xml version="1.0" encoding="utf-8"?>
<!-- Generator: Adobe Illustrator 23.1.0, SVG Export Plug-In . SVG Version: 6.00 Build 0)  -->
<svg version="1.1" id="Layer_1" xmlns="http://www.w3.org/2000/svg" xmlns:xlink="http://www.w3.org/1999/xlink" x="0px" y="0px"
	 viewBox="0 0 264.2 230.8" style="enable-background:new 0 0 264.2 230.8;" xml:space="preserve">
<style type="text/css">
	.st0{fill:#FDC60B;stroke:#010202;stroke-width:6.6163;stroke-miterlimit:10;}
	.st1{fill:#F9EFCF;stroke:#010202;stroke-width:4.7732;stroke-miterlimit:10;}
	.st2{fill:#F8AE41;}
</style>
<path class="st0" d="M132.1,225.9H30c-17,0-27.6-18.4-19.1-33.1l51-88.4l51-88.4c8.5-14.7,29.8-14.7,38.3,0l51,88.4l51,88.4
	c8.5,14.7-2.1,33.1-19.1,33.1H132.1z"/>
<path class="st1" d="M132.1,204.4H58.5c-12.3,0-19.9-13.3-13.8-23.9l36.8-63.8l36.8-63.8c6.1-10.6,21.5-10.6,27.6,0l36.8,63.8
	l36.8,63.8c6.1,10.6-1.5,23.9-13.8,23.9H132.1z"/>
<g>
	<path class="st2" d="M96.4,117.1c0-3.1,0.7-5.9,2.1-8.4c1.2-2.1,2.4-2.3,4.1-0.6c11.5,11.5,23,23,34.5,34.5
		c7.5,7.5,15,15,22.5,22.5c3.6,3.7,3.4,8.9-0.5,12c-2.7,2.1-6.7,2.1-9.4,0c-1.5-1.2-2.8-2.6-4.1-4c-3.4-3.4-6.8-6.8-10.2-10.2
		c-2.2-2.1-2.9-4.6-1.8-7.5c0.2-0.5,0.1-0.9-0.3-1.2c-0.1-0.1-0.2-0.2-0.3-0.3c-0.6-0.5-1-1.3-1.7-1.6c-0.8-0.3-1.3,0.7-1.9,1
		c-2.7,1.5-5.7,1-8.1-1.3c-2.2-2.1-4.4-4.3-6.5-6.5c-4.1-4.2-8.6-8.2-12.3-12.9c-3-3.9-5.2-8.1-5.9-13.1
		C96.4,118.7,96.4,117.8,96.4,117.1z M101.2,112.1c-0.2,0.3-0.3,0.5-0.3,0.6c-0.9,2.8-0.9,5.6-0.1,8.5c1.3,4.7,4,8.7,7.3,12.1
		c5.1,5.3,10.3,10.4,15.5,15.6c1.7,1.7,2.8,1.8,4.8,0.3c1.9-1.4,4.1-1.3,5.8,0.3c0.6,0.6,1.2,1.2,1.8,1.8c1.6,1.5,2,3.2,1.3,5.2
		c-0.5,1.5-0.1,2.6,0.9,3.7c3.5,3.4,6.9,6.8,10.3,10.3c1.1,1.1,2.2,2.2,3.3,3.3c1.2,1.1,2.6,1.3,4.1,0.7c1.5-0.6,2.3-1.8,2.4-3.4
		c0.1-1.5-0.7-2.6-1.7-3.5c-16-16-31.9-31.9-47.9-47.9C106.2,117.2,103.7,114.6,101.2,112.1z"/>
	<path class="st2" d="M101.9,178.4c-2.8-0.1-5.2-1.7-6.6-4.7c-1.3-2.9-0.6-6.2,1.8-8.7c3.7-3.7,7.4-7.4,11.1-11.1
		c1.1-1.1,2.2-2.3,3.4-3.4c1-1,2.1-1.1,3-0.3c0.9,0.8,0.8,2-0.3,3.1c-4.7,4.8-9.5,9.5-14.2,14.2c-1.3,1.2-1.9,2.7-1.3,4.4
		c0.9,2.5,3.9,3.5,6,1.9c0.9-0.7,1.7-1.6,2.5-2.4c4.3-4.2,8.5-8.5,12.8-12.7c1.4-1.4,2.5-1.6,3.4-0.6c0.9,0.9,0.7,2-0.6,3.3
		c-4.7,4.7-9.5,9.5-14.2,14.2C106.4,177.7,104.7,178.5,101.9,178.4z"/>
	<path class="st2" d="M155,104.1c1.4,0,2.3,1.5,1.7,2.7c-0.2,0.4-0.6,0.8-1,1.2c-3.8,3.8-7.7,7.7-11.5,11.5
		c-1.6,1.6-2.6,3.4-2.4,5.7c0.3,2.8-0.5,5-2.8,6.7c-0.7,0.5-1.2,1.3-1.9,1.9c-0.9,0.8-2,0.7-2.7,0c-0.7-0.7-0.7-1.8,0-2.7
		c0.5-0.6,1-1.1,1.6-1.6c1.5-1.2,2.1-2.6,2-4.6c-0.1-2.1,0.4-4.1,1.7-5.8c0.5-0.7,1.1-1.4,1.7-2.1c4-4,7.9-8,11.9-11.9
		C153.7,104.6,154.2,104.1,155,104.1z"/>
	<path class="st2" d="M147.3,131.4c3,0.6,5.3-0.8,7.3-2.9c3.4-3.6,7-7,10.5-10.5c0.2-0.2,0.4-0.4,0.7-0.7c1.1-1,2.2-1.1,3-0.2
		c0.8,0.9,0.7,1.9-0.3,3c-4.1,4.1-8.1,8.1-12.2,12.2c-2.2,2.1-4.8,3.2-7.9,3.1c-0.7,0-1.4,0-2.1,0c-0.5,0-0.9,0.1-1.3,0.5
		c-0.8,0.9-1.6,1.7-2.5,2.5c-1.2,1.1-2.3,1.3-3.1,0.5c-0.9-0.8-0.7-2,0.4-3.1c0.9-0.9,1.9-1.8,2.7-2.7c1-1.2,2.2-1.7,3.7-1.5
		C146.5,131.4,146.9,131.4,147.3,131.4z"/>
	<path class="st2" d="M147.8,127.1c-1.3,0-2.2-1.5-1.5-2.8c0.2-0.4,0.6-0.8,1-1.2c3.7-3.7,7.4-7.4,11.1-11.1c0.3-0.3,0.6-0.6,1-0.8
		c0.8-0.5,1.6-0.4,2.2,0.2c0.7,0.6,0.8,1.5,0.4,2.3c-0.2,0.4-0.5,0.7-0.8,1c-3.7,3.8-7.5,7.5-11.3,11.3
		C149.3,126.6,148.7,127,147.8,127.1z"/>
</g>
</svg>
