<?xml version="1.0" encoding="utf-8"?>
<!-- Generator: Adobe Illustrator 23.1.0, SVG Export Plug-In . SVG Version: 6.00 Build 0)  -->
<svg version="1.1" id="Layer_1" xmlns="http://www.w3.org/2000/svg" xmlns:xlink="http://www.w3.org/1999/xlink" x="0px" y="0px"
	 viewBox="0 0 351.8 230.8" style="enable-background:new 0 0 351.8 230.8;" xml:space="preserve">
<style type="text/css">
	.st0{fill:#FDC60A;}
	.st1{fill:#F9EFCF;stroke:#020203;stroke-width:4.458;stroke-miterlimit:10;}
	.st2{fill:none;stroke:#020203;stroke-width:9.606;stroke-miterlimit:10;stroke-dasharray:25.7845;}
	.st3{fill:#020203;}
	.st4{font-family:'CookieRunOTF-Regular-KSCpc-EUC-H';}
	.st5{font-size:38.8235px;}
</style>
<g>
	<g>
		<g>
			<path class="st0" d="M7.1,223.4v-73h3.5c15.2,0,27.6-12.4,27.6-27.6c0-15.2-12.4-27.6-27.6-27.6H7.1V10.6h337v84.6h-3.5
				c-15.2,0-27.6,12.4-27.6,27.6c0,15.2,12.4,27.6,27.6,27.6h3.5v73H7.1z"/>
			<path d="M340.6,14.1v77.6c-17.2,0-31.1,13.9-31.1,31.1c0,17.2,13.9,31.1,31.1,31.1v66h-165h-165v-66c17.2,0,31.1-13.9,31.1-31.1
				c0-17.2-13.9-31.1-31.1-31.1V14.1h165H340.6 M347.6,7.1h-7h-165h-165h-7v7v77.6v7h7c13.3,0,24.1,10.8,24.1,24.1
				c0,13.3-10.8,24.1-24.1,24.1h-7v7v66v7h7h165h165h7v-7v-66v-7h-7c-13.3,0-24.1-10.8-24.1-24.1c0-13.3,10.8-24.1,24.1-24.1h7v-7
				V14.1V7.1L347.6,7.1z"/>
		</g>
	</g>
</g>
<path class="st1" d="M211.4,184h-122C77,184,66.9,174,66.9,161.6V72.4C66.9,60,77,50,89.4,50h122c12.4,0,22.5,10.1,22.5,22.5v89.1
	C233.8,174,223.8,184,211.4,184z"/>
<line class="st2" x1="272" y1="11" x2="272" y2="223.7"/>
<text transform="matrix(1 0 0 1 108.3769 129.1555)" class="st3 st4 st5">V I P</text>
</svg>
